<svg width="24" height="24" viewBox="0 0 24 24" fill="none" xmlns="http://www.w3.org/2000/svg">
<path fillRule="evenodd" clipRule="evenodd" d="M11.5443 18.603C11.8067 18.7935 12.1623 18.7935 12.4247 18.603C12.4247 18.603 14.68 16.9695 16.4838 14.5508C17.7325 12.876 18.7495 10.83 18.7495 8.69251C18.7495 4.70626 16.1523 1.49551 11.9845 1.49551C7.81675 1.49551 5.21875 4.70626 5.21875 8.69251C5.21875 10.83 6.2365 12.876 7.48525 14.5508C9.289 16.9695 11.5443 18.603 11.5443 18.603ZM11.9845 17.046C11.2855 16.4805 9.88 15.2528 8.6875 13.6538C7.62625 12.231 6.71875 10.509 6.71875 8.69251C6.71875 5.56201 8.7115 2.99551 11.9845 2.99551C15.2575 2.99551 17.2495 5.56201 17.2495 8.69251C17.2495 10.509 16.3427 12.231 15.2815 13.6538C14.089 15.2528 12.6835 16.4805 11.9845 17.046Z" fill="#929292"/>
<path fillRule="evenodd" clipRule="evenodd" d="M16.8764 17.559C17.4786 17.904 17.9129 18.2753 17.9129 18.7455C17.9129 19.1888 17.5191 19.5435 16.9724 19.8758C15.8339 20.5665 13.9926 20.9955 11.9219 20.9955C9.85114 20.9955 8.00989 20.5665 6.87214 19.8758C6.32464 19.5435 5.93164 19.1888 5.93164 18.7455C5.93164 18.546 6.02764 18.3615 6.17539 18.1853C6.39139 17.925 6.71014 17.6933 7.10164 17.4848C7.46689 17.2905 7.60639 16.836 7.41139 16.4708C7.21714 16.1048 6.76264 15.966 6.39739 16.161C5.11639 16.8428 4.43164 17.7885 4.43164 18.7455C4.43164 19.6283 5.00314 20.496 6.09364 21.1583C7.40914 21.957 9.52864 22.4955 11.9219 22.4955C14.3159 22.4955 16.4346 21.957 17.7501 21.1583C18.8406 20.496 19.4129 19.6283 19.4129 18.7455C19.4129 17.8305 18.7934 16.929 17.6226 16.2578C17.2634 16.0523 16.8044 16.176 16.5989 16.5353C16.3926 16.8945 16.5171 17.3535 16.8764 17.559Z" fill="#929292"/>
<path fillRule="evenodd" clipRule="evenodd" d="M11.249 7.49551H9.74902C9.33577 7.49551 8.99902 7.83151 8.99902 8.24551C8.99902 8.65951 9.33577 8.99551 9.74902 8.99551H11.249L11.2483 10.4955C11.2483 10.9095 11.5843 11.2455 11.9983 11.2455C12.4123 11.2455 12.7483 10.9095 12.7483 10.4955L12.749 8.99551H14.249C14.663 8.99551 14.999 8.65951 14.999 8.24551C14.999 7.83151 14.663 7.49551 14.249 7.49551H12.749V5.99551C12.7498 5.58226 12.4138 5.24551 11.9998 5.24551C11.5858 5.24551 11.2498 5.58151 11.249 5.99551V7.49551Z" fill="#929292"/>
</svg>
