<svg width="24" height="24" viewBox="0 0 24 24" fill="none" xmlns="http://www.w3.org/2000/svg">
<g clip-path="url(#clip0_538_419)">
<path d="M9 10C6.243 10 4 7.757 4 5C4 2.243 6.243 0 9 0C11.757 0 14 2.243 14 5C14 7.757 11.757 10 9 10ZM9 1.5C7.07 1.5 5.5 3.07 5.5 5C5.5 6.93 7.07 8.5 9 8.5C10.93 8.5 12.5 6.93 12.5 5C12.5 3.07 10.93 1.5 9 1.5Z" fill="#929292"/>
<path d="M6.5 21H0.75C0.336 21 0 20.664 0 20.25V16.75C0 14.131 2.131 12 4.75 12H13.25C14.545 12 15.794 12.534 16.675 13.465C16.96 13.766 16.946 14.24 16.646 14.526C16.345 14.809 15.87 14.797 15.585 14.497C14.986 13.864 14.135 13.501 13.25 13.501H4.75C2.958 13.501 1.5 14.959 1.5 16.751V19.501H6.5C6.914 19.501 7.25 19.837 7.25 20.251C7.25 20.665 6.914 21 6.5 21Z" fill="#929292"/>
<path d="M14.5 24C14.231 24 13.983 23.856 13.849 23.622L12.065 20.5H9.75C9.336 20.5 9 20.164 9 19.75C9 19.336 9.336 19 9.75 19H12.5C12.769 19 13.018 19.145 13.151 19.378L14.429 21.614L16.819 16.435C16.938 16.178 17.192 16.009 17.475 15.999C17.768 16.012 18.023 16.142 18.158 16.39L20.945 21.499H23.25C23.664 21.499 24 21.835 24 22.249C24 22.663 23.664 23 23.25 23H20.5C20.226 23 19.973 22.85 19.842 22.609L17.556 18.419L15.181 23.565C15.063 23.82 14.813 23.988 14.533 24C14.521 24 14.511 24 14.5 24Z" fill="#929292"/>
</g>
<defs>
<clipPath id="clip0_538_419">
<rect width="24" height="24" fill="white"/>
</clipPath>
</defs>
</svg>
