<svg width="24" height="24" viewBox="0 0 24 24" fill="none" xmlns="http://www.w3.org/2000/svg">
<path fillRule="evenodd" clipRule="evenodd" d="M20.8704 2.6205L20.6192 3.558C20.5989 3.63337 20.5217 3.678 20.4463 3.65813C20.4463 3.65775 19.3247 3.35738 19.3247 3.35738C19.2493 3.33713 19.2047 3.25987 19.2249 3.1845C19.2977 2.913 19.3903 2.56762 19.4758 2.24625C19.5703 1.89375 19.4394 1.51875 19.1458 1.30088C18.8522 1.08338 18.4554 1.06687 18.1449 1.26C18.1446 1.26037 18.1438 1.26075 18.1431 1.26112C17.5089 1.66087 17.0181 2.29125 16.8088 3.07162C16.3682 4.716 17.3458 6.40875 18.9902 6.84937C20.6346 7.29 22.3273 6.31275 22.7679 4.66838C22.9772 3.888 22.8669 3.09712 22.5186 2.43337C22.5182 2.43262 22.5178 2.43187 22.5174 2.43112C22.3449 2.10825 21.9928 1.92375 21.6294 1.96575C21.2661 2.00738 20.9649 2.26687 20.8704 2.6205ZM21.3437 3.75225L21.5949 2.81438C21.6099 2.7585 21.6576 2.71725 21.7153 2.71088C21.7727 2.70413 21.8282 2.733 21.8556 2.784C22.1184 3.28575 22.2017 3.88425 22.0438 4.47412C21.7101 5.71875 20.4291 6.45862 19.1841 6.12488C17.9394 5.7915 17.1999 4.51013 17.5333 3.2655C17.6916 2.67563 18.0624 2.19938 18.5417 1.89675C18.5904 1.86638 18.6527 1.869 18.6992 1.9035C18.7453 1.93763 18.7659 1.99687 18.7509 2.05275L18.5004 2.99025C18.3729 3.46575 18.6553 3.95438 19.1304 4.08188L20.2524 4.38225C20.7276 4.50975 21.2162 4.22775 21.3437 3.75225Z" fill="#929292"/>
<path fillRule="evenodd" clipRule="evenodd" d="M11.9153 2.62087C11.8208 2.26725 11.52 2.00738 11.1563 1.96575C10.7929 1.92375 10.4408 2.10825 10.2683 2.43112C10.2679 2.43187 10.2675 2.43262 10.2672 2.43337C9.91878 3.09712 9.8089 3.888 10.0178 4.66838C10.4584 6.31275 12.1512 7.29 13.7959 6.84937C15.4403 6.40875 16.4175 4.716 15.9769 3.07162C15.768 2.29125 15.2768 1.66087 14.6427 1.26112C14.6419 1.26075 14.6415 1.26037 14.6408 1.26C14.3303 1.06687 13.9335 1.08338 13.6399 1.30088C13.3463 1.51875 13.2158 1.89375 13.3103 2.24663C13.3958 2.56763 13.488 2.913 13.5608 3.1845C13.581 3.25987 13.5364 3.33713 13.461 3.35738L12.3394 3.65775C12.264 3.678 12.1868 3.63337 12.1665 3.558L11.9153 2.62087ZM11.1908 2.81438L11.442 3.75225C11.5695 4.22775 12.0582 4.50975 12.5337 4.38225L13.6553 4.08188C14.1308 3.95438 14.4128 3.46575 14.2853 2.99025L14.0348 2.05275C14.0198 1.99687 14.0404 1.93763 14.0869 1.9035C14.133 1.869 14.1953 1.86638 14.2444 1.89675C14.7233 2.19938 15.0945 2.67563 15.2524 3.2655C15.5862 4.51013 14.8463 5.7915 13.6017 6.12488C12.357 6.45862 11.0757 5.71875 10.7423 4.47412C10.584 3.88425 10.6673 3.28575 10.9302 2.784C10.9575 2.733 11.0134 2.70413 11.0708 2.71088C11.1282 2.71725 11.1758 2.7585 11.1908 2.81438Z" fill="#929292"/>
<path fillRule="evenodd" clipRule="evenodd" d="M18.2733 5.64676C18.1754 5.56313 18.0415 5.53576 17.9185 5.57363C17.7959 5.61188 17.701 5.71051 17.6677 5.83501L17.0958 7.96876C17.0478 8.14838 17.1385 8.33626 17.3095 8.40976C17.6759 8.56801 18.0618 8.70301 18.4642 8.81101C18.8669 8.91863 19.2685 8.99513 19.6649 9.04126C19.8498 9.06263 20.0223 8.94526 20.0707 8.76563L20.6422 6.63188C20.6755 6.50738 20.6429 6.37463 20.5552 6.28013C20.4678 6.18563 20.338 6.14251 20.2117 6.16613C19.8802 6.22763 19.5307 6.21788 19.1838 6.12488C18.8373 6.03226 18.5294 5.86576 18.2733 5.64676ZM18.2534 6.54638C18.4799 6.67613 18.7263 6.77888 18.9899 6.84938C19.2535 6.92026 19.5183 6.95438 19.7789 6.95513C19.7793 6.95513 19.4317 8.25188 19.4317 8.25188C19.1752 8.21063 18.9172 8.15588 18.6584 8.08651C18.3997 8.01713 18.1488 7.93576 17.9062 7.84313L18.2534 6.54638Z" fill="#929292"/>
<path fillRule="evenodd" clipRule="evenodd" d="M15.1181 5.83501C15.0851 5.71051 14.9903 5.61188 14.8673 5.57363C14.7443 5.53576 14.6104 5.56313 14.5125 5.64676C14.2564 5.86576 13.9489 6.03226 13.602 6.12488C13.2551 6.21788 12.9056 6.22763 12.5745 6.16613C12.4478 6.14251 12.318 6.18563 12.2306 6.28013C12.1433 6.37463 12.1103 6.50738 12.1436 6.63188L12.7155 8.76563C12.7635 8.94526 12.9364 9.06263 13.1209 9.04126C13.5173 8.99513 13.9193 8.91863 14.3216 8.81101C14.7244 8.70301 15.1103 8.56801 15.4766 8.40976C15.6473 8.33626 15.7384 8.14838 15.69 7.96876L15.1181 5.83501ZM14.5324 6.54638L14.88 7.84313C14.6374 7.93576 14.3861 8.01713 14.1274 8.08651C13.869 8.15588 13.6106 8.21063 13.3541 8.25188L13.0069 6.95513C13.2675 6.95438 13.5326 6.92026 13.7963 6.84938C14.0599 6.77888 14.3063 6.67613 14.5324 6.54638Z" fill="#929292"/>
<path fillRule="evenodd" clipRule="evenodd" d="M13.0332 14.5054C12.9871 14.2174 12.7568 13.9946 12.4681 13.9571C12.4666 13.9571 12.4647 13.9568 12.4632 13.9568C12.1553 13.9211 11.8437 13.9211 11.5358 13.9579C11.5347 13.9583 11.534 13.9583 11.5328 13.9583C11.2456 13.9954 11.0165 14.2159 10.9688 14.5013C10.9572 14.5688 10.9448 14.646 10.9325 14.7206C10.922 14.7855 10.8788 14.8403 10.8181 14.8654C10.6793 14.9179 10.5477 14.9813 10.421 15.0529C10.4202 15.0536 10.4195 15.054 10.4187 15.0544C10.3617 15.0874 10.2912 15.0878 10.2338 15.0555L10.0418 14.9505C9.78835 14.8073 9.47072 14.8481 9.26147 15.051C9.26035 15.0521 9.25922 15.0533 9.2581 15.0544C9.03797 15.273 8.8441 15.5164 8.6806 15.78C8.68022 15.7811 8.67985 15.7819 8.6791 15.783C8.52872 16.0305 8.55872 16.347 8.75222 16.5623C8.7976 16.6136 8.8501 16.6714 8.9011 16.7273C8.94497 16.776 8.96072 16.8439 8.94272 16.9069C8.89735 17.0486 8.86472 17.1908 8.84185 17.3344C8.84185 17.3355 8.84147 17.3363 8.84147 17.3374C8.83172 17.4023 8.78822 17.4578 8.7271 17.4821L8.52535 17.5673C8.25535 17.676 8.08922 17.9498 8.11735 18.24C8.11735 18.2415 8.11772 18.243 8.11772 18.2445C8.15147 18.5531 8.22085 18.8565 8.32547 19.1486C8.32547 19.1494 8.32585 19.1505 8.32622 19.1513C8.42635 19.4235 8.69222 19.5975 8.98135 19.5806C9.0496 19.5769 9.1276 19.5716 9.20297 19.5668C9.2686 19.5626 9.3316 19.5926 9.36985 19.6463C9.45197 19.77 9.54272 19.8844 9.64097 19.9916C9.64172 19.9924 9.6421 19.9931 9.64285 19.9935C9.68785 20.0419 9.7036 20.1105 9.68485 20.1735L9.6256 20.3843C9.54235 20.6629 9.6526 20.964 9.8971 21.1226C9.89822 21.1238 9.89972 21.1245 9.90085 21.1253C10.163 21.291 10.4435 21.426 10.7371 21.5265C10.7382 21.5269 10.739 21.5273 10.7401 21.5276C11.015 21.6191 11.3172 21.5194 11.4837 21.2831C11.5238 21.2273 11.5681 21.1631 11.6116 21.1013C11.6491 21.0473 11.7121 21.0169 11.7773 21.0203C11.9255 21.0334 12.0713 21.0334 12.2168 21.0236C12.2176 21.0236 12.2183 21.0236 12.2195 21.0233C12.2851 21.0184 12.3485 21.0488 12.3863 21.1028L12.5138 21.2805C12.68 21.5194 12.9841 21.6206 13.2605 21.5288C13.262 21.528 13.2635 21.5276 13.265 21.5273C13.5582 21.4256 13.8387 21.2906 14.1001 21.1238C14.1008 21.123 14.102 21.1226 14.1027 21.1219C14.3457 20.964 14.4563 20.6659 14.3753 20.388C14.3566 20.322 14.3341 20.2474 14.3127 20.1746C14.294 20.1116 14.3093 20.0434 14.3528 19.9946C14.4556 19.887 14.5463 19.773 14.6292 19.6534C14.63 19.6526 14.6303 19.6519 14.6311 19.6511C14.6682 19.5964 14.7312 19.5656 14.7968 19.5701L15.0155 19.581C15.3057 19.6001 15.5746 19.4254 15.6751 19.152C15.6755 19.1505 15.6762 19.149 15.6766 19.1475C15.7801 18.855 15.8495 18.5516 15.8817 18.243C15.8821 18.2419 15.8821 18.2411 15.8821 18.24C15.9102 17.9516 15.746 17.6794 15.4782 17.5691C15.4148 17.5429 15.3428 17.5136 15.2727 17.4851C15.2116 17.4604 15.1677 17.406 15.1568 17.3415C15.1366 17.1941 15.1043 17.052 15.0623 16.9125C15.062 16.9118 15.0616 16.9106 15.0616 16.9099C15.0421 16.8469 15.0575 16.7783 15.1017 16.7295L15.2465 16.5656C15.4426 16.3504 15.4733 16.0316 15.3222 15.7823C15.3215 15.7811 15.3207 15.7796 15.32 15.7785C15.1557 15.5153 14.9615 15.2719 14.7406 15.054C14.7398 15.0533 14.7391 15.0525 14.7383 15.0518C14.5306 14.8504 14.2152 14.8088 13.9621 14.9494C13.9021 14.9824 13.8342 15.0206 13.7682 15.0581C13.7108 15.0904 13.6411 15.0904 13.5837 15.0589C13.4558 14.9828 13.3246 14.9194 13.1896 14.8654C13.1885 14.865 13.1877 14.8646 13.187 14.8643C13.1255 14.8403 13.0816 14.7855 13.0711 14.7203L13.0332 14.5054ZM12.305 14.6944L12.3323 14.8496C12.3867 15.171 12.6072 15.4425 12.9128 15.5625C13.0107 15.6015 13.1078 15.648 13.2005 15.7035C13.202 15.7043 13.2035 15.7054 13.2053 15.7061C13.493 15.8726 13.847 15.8745 14.1365 15.7114L14.2651 15.6394C14.4065 15.7856 14.5336 15.9446 14.6446 16.1145L14.54 16.2326C14.3228 16.4756 14.2478 16.8173 14.345 17.1311C14.375 17.2316 14.3993 17.337 14.414 17.4439C14.414 17.4458 14.4143 17.4473 14.4147 17.4491C14.4638 17.7776 14.6832 18.0559 14.9911 18.1804L15.1276 18.2363C15.1017 18.438 15.0563 18.6364 14.993 18.8291L14.8355 18.8209C14.5096 18.8029 14.1961 18.9574 14.0112 19.2285C13.9512 19.3151 13.8841 19.3995 13.8098 19.4775C13.8083 19.4786 13.8072 19.4801 13.8061 19.4816C13.58 19.725 13.4993 20.0696 13.5938 20.388L13.6351 20.5298C13.4611 20.6351 13.2781 20.7233 13.0876 20.7938L12.9957 20.6659C12.8071 20.3996 12.491 20.2508 12.1632 20.2755C12.0582 20.2826 11.9506 20.283 11.843 20.2733C11.8411 20.2729 11.8396 20.2729 11.8377 20.2729C11.5062 20.2478 11.1863 20.3996 10.9966 20.6719L10.9115 20.7926C10.7206 20.7225 10.5376 20.634 10.3636 20.5294L10.4063 20.3779C10.4967 20.0644 10.4161 19.7243 10.1926 19.4835C10.1217 19.4059 10.0542 19.3215 9.9946 19.2319C9.99385 19.23 9.99272 19.2285 9.9916 19.227C9.80485 18.9525 9.48647 18.7973 9.15497 18.8186L9.0076 18.8273C8.94385 18.6341 8.89847 18.4361 8.87185 18.2348L9.01735 18.1736C9.31885 18.0488 9.5341 17.7739 9.58322 17.4488C9.59935 17.3453 9.62335 17.2399 9.65672 17.1371C9.6571 17.1356 9.65785 17.1338 9.65822 17.1319C9.75647 16.8146 9.6796 16.4689 9.4561 16.2233L9.35747 16.1134C9.46847 15.9431 9.59522 15.7841 9.73585 15.6379L9.87422 15.7136C10.16 15.8711 10.5095 15.8681 10.7937 15.7039C10.8852 15.6521 10.9823 15.6049 11.0832 15.567C11.0851 15.5663 11.0866 15.5659 11.0885 15.5651C11.3978 15.444 11.6198 15.1684 11.6731 14.8403L11.6971 14.6948C11.8996 14.6753 12.1028 14.6753 12.305 14.6944ZM12.0001 16.047C11.0142 16.047 10.214 16.8476 10.214 17.8335C10.214 18.8194 11.0142 19.6196 12.0001 19.6196C12.986 19.6196 13.7866 18.8194 13.7866 17.8335C13.7866 16.8476 12.986 16.047 12.0001 16.047ZM12.0001 16.797C12.5723 16.797 13.0366 17.2616 13.0366 17.8335C13.0366 18.4054 12.5723 18.8696 12.0001 18.8696C11.4282 18.8696 10.964 18.4054 10.964 17.8335C10.964 17.2616 11.4282 16.797 12.0001 16.797Z" fill="#929292"/>
<path fillRule="evenodd" clipRule="evenodd" d="M22.0002 12.9934C22.0002 12.8715 21.941 12.7575 21.8416 12.687C21.7423 12.6169 21.6147 12.5993 21.5 12.6398C21.4025 12.6743 21.2971 12.693 21.1876 12.693C17.417 12.693 6.58325 12.693 2.81262 12.693C2.70312 12.693 2.59775 12.6743 2.50025 12.6398C2.3855 12.5993 2.258 12.6169 2.15862 12.687C2.05925 12.7575 2 12.8715 2 12.9934V18.999C2 20.0269 2.40837 21.0124 3.13512 21.7391C3.86187 22.4659 4.84737 22.8739 5.87525 22.8739H18.125C19.1529 22.8739 20.1384 22.4659 20.8651 21.7391C21.5919 21.0124 22.0002 20.0269 22.0002 18.999V12.9934ZM21.2502 13.4419V18.999C21.2502 19.8278 20.921 20.6228 20.3349 21.2089C19.7488 21.7946 18.9538 22.1239 18.125 22.1239C14.6495 22.1239 9.35075 22.1239 5.87525 22.1239C5.0465 22.1239 4.2515 21.7946 3.66537 21.2089C3.07925 20.6228 2.75 19.8278 2.75 18.999V13.4419C2.771 13.4426 2.79162 13.443 2.81262 13.443H21.1876L21.2502 13.4419Z" fill="#929292"/>
<path fillRule="evenodd" clipRule="evenodd" d="M16.758 9.23026C16.7276 9.34276 16.7516 9.46313 16.8225 9.55538C16.8938 9.64801 17.0036 9.70201 17.1203 9.70201H19.5319C19.7018 9.70201 19.8503 9.58801 19.8941 9.42413L20.6423 6.63188C20.6756 6.50738 20.643 6.37463 20.5553 6.28013C20.4679 6.18563 20.3381 6.14251 20.2118 6.16613C19.8803 6.22763 19.5308 6.21788 19.1839 6.12488C18.8374 6.03226 18.5295 5.86576 18.2734 5.64676C18.1755 5.56313 18.0416 5.53576 17.9186 5.57363C17.796 5.61188 17.7011 5.71051 17.6678 5.83501L16.758 9.23026ZM17.6089 8.95201L18.2535 6.54638C18.48 6.67613 18.7264 6.77888 18.99 6.84938C19.2536 6.92026 19.5184 6.95438 19.779 6.95513L19.2443 8.95201H17.6089Z" fill="#929292"/>
<path fillRule="evenodd" clipRule="evenodd" d="M15.666 9.70201C15.7823 9.70201 15.8925 9.64801 15.9634 9.55538C16.0343 9.46313 16.0583 9.34276 16.0279 9.23026L15.1181 5.83501C15.0851 5.71051 14.9903 5.61188 14.8673 5.57363C14.7443 5.53576 14.6104 5.56313 14.5125 5.64676C14.2564 5.86576 13.9489 6.03226 13.602 6.12488C13.2551 6.21788 12.9056 6.22763 12.5745 6.16613C12.4478 6.14251 12.318 6.18563 12.2306 6.28013C12.1433 6.37463 12.1103 6.50738 12.1436 6.63188L12.8918 9.42413C12.936 9.58801 13.0845 9.70201 13.254 9.70201H15.666ZM15.177 8.95201H13.542L13.0069 6.95513C13.2675 6.95438 13.5326 6.92026 13.7963 6.84938C14.0599 6.77888 14.3063 6.67613 14.5324 6.54638L15.177 8.95201Z" fill="#929292"/>
<path fillRule="evenodd" clipRule="evenodd" d="M22.875 11.943V10.452C22.875 9.62362 22.2034 8.952 21.375 8.952C17.73 8.952 6.27 8.952 2.625 8.952C1.79662 8.952 1.125 9.62362 1.125 10.452V11.943C1.125 12.7714 1.79662 13.443 2.625 13.443H21.375C22.2034 13.443 22.875 12.7714 22.875 11.943ZM22.125 10.452V11.943C22.125 12.3574 21.7894 12.693 21.375 12.693C17.73 12.693 6.27 12.693 2.625 12.693C2.21062 12.693 1.875 12.3574 1.875 11.943V10.452C1.875 10.038 2.21062 9.702 2.625 9.702H21.375C21.7894 9.702 22.125 10.038 22.125 10.452Z" fill="#929292"/>
<path fillRule="evenodd" clipRule="evenodd" d="M6.89075 9.42412C6.93462 9.58799 7.08312 9.70199 7.253 9.70199H8.9165C9.03312 9.70199 9.14337 9.64799 9.21424 9.55537C9.28512 9.46312 9.30912 9.34274 9.27875 9.23024L8.28387 5.51699C8.2805 5.50424 8.27862 5.49112 8.27862 5.47799L8.24487 3.46949C8.24225 3.31987 8.20287 3.17362 8.1305 3.04274C7.97412 2.76149 7.5725 2.03812 7.3265 1.59449C7.12362 1.22924 6.698 1.04849 6.2945 1.15687L5.55012 1.35637C5.14662 1.46437 4.86837 1.83337 4.87512 2.25112C4.88375 2.75849 4.89762 3.58574 4.90325 3.90749C4.9055 4.05712 4.94487 4.20337 5.01762 4.33424L5.99262 6.09074C5.99899 6.10199 6.00387 6.11437 6.00724 6.12712L6.89075 9.42412ZM7.54062 8.95199L6.73175 5.93287C6.71225 5.86087 6.6845 5.79149 6.64812 5.72662L5.67312 3.97012C5.66037 3.94724 5.65362 3.92137 5.65287 3.89474L5.62512 2.23874C5.624 2.16487 5.67312 2.09962 5.74437 2.08087L6.48837 1.88137C6.55962 1.86224 6.635 1.89412 6.67062 1.95862L7.47462 3.40687C7.48737 3.42974 7.4945 3.45562 7.49487 3.48224L7.52862 5.49074C7.52975 5.56499 7.54025 5.63924 7.55937 5.71087L8.42787 8.95199H7.54062Z" fill="#929292"/>
</svg>
